<?xml version="1.0" encoding="UTF-8"?>
<svg version="1.1" xmlns="http://www.w3.org/2000/svg" width="357" height="112">
<path d="M0 0 C0.72960938 0.14824219 1.45921875 0.29648438 2.2109375 0.44921875 C8.33118644 2.63785146 10.70315339 4.95952457 13.6171875 10.734375 C14.59524108 12.83586851 15.55573778 14.94560779 16.5 17.0625 C16.99757812 18.14144531 17.49515625 19.22039063 18.0078125 20.33203125 C19.22892984 22.98561317 20.43387782 25.64535296 21.625 28.3125 C26.90343761 26.2442116 32.10561344 24.1460611 37.1875 21.625 C43.5502738 18.72630333 48.58046881 17.39914064 55.375 19.4375 C60.88142117 22.61428144 64.42965799 26.30419556 66.625 32.3125 C67.63909934 38.30794447 66.55807008 42.41683194 63.3046875 47.48828125 C58.82991172 52.34809587 52.65287012 54.86118655 46.75 57.5625 C45.96625 57.92601562 45.1825 58.28953125 44.375 58.6640625 C42.46038779 59.55132182 40.54297675 60.43253739 38.625 61.3125 C38.625 64.51955985 39.13369217 65.63511044 40.59375 68.41015625 C40.99980469 69.21259766 41.40585938 70.01503906 41.82421875 70.84179688 C42.68031416 72.5089977 43.54725103 74.17068325 44.42578125 75.82617188 C47.35655963 81.68307661 48.64834025 86.75478304 47.625 93.3125 C45.75586015 98.00942518 43.34689906 101.25451191 38.9375 103.8125 C34.2407948 105.80127498 29.64101965 106.14569789 24.625 105.3125 C16.59516855 101.29758428 13.44551708 94.29814886 9.875 86.5 C9.46378906 85.61634766 9.05257812 84.73269531 8.62890625 83.82226562 C7.62146541 81.65509637 6.62039302 79.48522247 5.625 77.3125 C0.26072336 78.95479392 -4.65065888 81.29639368 -9.6328125 83.83398438 C-15.04897308 86.46932697 -20.08213762 87.89738604 -26.16796875 86.81640625 C-31.50776604 84.71707322 -34.83565481 82.69187797 -37.53515625 77.5234375 C-39.55672853 72.20153095 -39.89045926 68.03069754 -38.25 62.5625 C-34.55843885 56.16379401 -29.85609236 53.21280695 -23.375 50.1875 C-21.97828695 49.52006701 -20.58243235 48.8508342 -19.1875 48.1796875 C-18.53394531 47.86612305 -17.88039063 47.55255859 -17.20703125 47.22949219 C-14.84946712 46.04945343 -12.6058805 44.71551469 -10.375 43.3125 C-10.67792969 42.72871582 -10.98085938 42.14493164 -11.29296875 41.54345703 C-12.67471487 38.85170931 -14.02479935 36.14519968 -15.375 33.4375 C-15.85195313 32.5196875 -16.32890625 31.601875 -16.8203125 30.65625 C-19.85125266 24.50777139 -21.54277867 19.19672531 -20.375 12.3125 C-17.81127312 6.11259135 -14.42216349 3.06121068 -8.375 0.3125 C-5.29063831 -0.7052773 -3.16625604 -0.6943544 0 0 Z " fill="#597DFC" transform="translate(45.375,5.6875)"/>
<path d="M0 0 C1.09441406 0.22236328 1.09441406 0.22236328 2.2109375 0.44921875 C8.33118644 2.63785146 10.70315339 4.95952457 13.6171875 10.734375 C14.59524108 12.83586851 15.55573778 14.94560779 16.5 17.0625 C16.99757812 18.14144531 17.49515625 19.22039063 18.0078125 20.33203125 C19.22892984 22.98561317 20.43387782 25.64535296 21.625 28.3125 C26.90343761 26.2442116 32.10561344 24.1460611 37.1875 21.625 C43.5502738 18.72630333 48.58046881 17.39914064 55.375 19.4375 C60.88142117 22.61428144 64.42965799 26.30419556 66.625 32.3125 C67.63909934 38.30794447 66.55807008 42.41683194 63.3046875 47.48828125 C58.88366237 52.28972017 52.75875629 54.8502667 46.9375 57.5625 C46.17888672 57.92601562 45.42027344 58.28953125 44.63867188 58.6640625 C43.90841797 59.00695312 43.17816406 59.34984375 42.42578125 59.703125 C41.76747314 60.01282227 41.10916504 60.32251953 40.4309082 60.64160156 C38.625 61.3125 38.625 61.3125 35.625 61.3125 C35.15191406 60.22710937 34.67882812 59.14171875 34.19140625 58.0234375 C28.92789333 46.4169329 28.92789333 46.4169329 18.625 39.3125 C10.61199973 36.64149991 4.70230443 38.73585444 -2.67578125 42.12109375 C-4.9477225 43.12390429 -6.97386991 43.75455176 -9.375 44.3125 C-15.33203125 32.3984375 -15.33203125 32.3984375 -16.37939453 30.28857422 C-17.25929123 28.54215835 -18.17946359 26.8161614 -19.10546875 25.09375 C-21.08495486 20.75715273 -21.13154052 16.98143576 -20.375 12.3125 C-17.98091054 6.09850779 -14.32412769 3.01664895 -8.375 0.3125 C-5.29063831 -0.7052773 -3.16625604 -0.6943544 0 0 Z " fill="#69DAFC" transform="translate(45.375,5.6875)"/>
<path d="M0 0 C7.44929613 4.11154949 10.83866742 10.46974351 14.24609375 18.01953125 C14.8125 20 14.8125 20 13.8125 23 C6.78062092 27.92757611 -1.39391139 29.68211788 -9.80078125 28.5234375 C-15.72468889 27.2242499 -18.93712446 24.72248832 -22.375 19.75 C-23.33764181 18.18182544 -24.27569945 16.59827108 -25.1875 15 C-25.61546875 14.25492188 -26.0434375 13.50984375 -26.484375 12.7421875 C-27.625 10.625 -27.625 10.625 -29.1875 7 C-28.1875 4 -28.1875 4 -25.7890625 2.6484375 C-24.80679688 2.22820313 -23.82453125 1.80796875 -22.8125 1.375 C-21.34683594 0.73691406 -21.34683594 0.73691406 -19.8515625 0.0859375 C-12.82795816 -2.77705664 -7.02042176 -3.16025028 0 0 Z " fill="#2624FA" transform="translate(66.1875,45)"/>
<path d="M0 0 C3.63 0 7.26 0 11 0 C11.34256836 0.83136475 11.68513672 1.66272949 12.03808594 2.51928711 C13.32681861 5.64518174 14.61666216 8.77061336 15.90722656 11.89575195 C16.46235016 13.24062411 17.01704842 14.58567193 17.57128906 15.9309082 C18.37449322 17.8802006 19.17900171 19.82894661 19.984375 21.77734375 C20.37514221 22.72327896 20.37514221 22.72327896 20.77380371 23.68832397 C22.54464008 27.95527712 24.39471478 32.1775438 26.34472656 36.36547852 C27 38 27 38 27 40 C27.99 40.33 28.98 40.66 30 41 C29.67 41.99 29.34 42.98 29 44 C24.05 44 19.1 44 14 44 C14.32552083 41.75390625 14.65104167 39.5078125 14.9765625 37.26171875 C15.21533407 34.71276785 15.21533407 34.71276785 13 32 C10.2114711 31.77892213 7.65346819 31.71892465 4.875 31.8125 C4.12089844 31.82603516 3.36679688 31.83957031 2.58984375 31.85351562 C0.72625873 31.88890015 -1.13695978 31.94270833 -3 32 C-3.2784375 33.85625 -3.2784375 33.85625 -3.5625 35.75 C-3.66691406 36.44609375 -3.77132812 37.1421875 -3.87890625 37.859375 C-4.12547949 40.33941547 -4.12547949 40.33941547 -3 44 C-6.96 44 -10.92 44 -15 44 C-14 40 -14 40 -12.62207031 38.6472168 C-9.03931986 35.008924 -7.53808405 29.50152896 -5.59179688 24.82299805 C-4.75675332 22.82862922 -3.89479533 20.8473962 -3.03125 18.86523438 C0.88087314 9.68660041 0.88087314 9.68660041 0 0 Z M5 11 C2.03 18.92 2.03 18.92 -1 27 C3.29 27 7.58 27 12 27 C10.23196827 21.52752083 8.34565002 16.24978815 6 11 C5.67 11 5.34 11 5 11 Z " fill="#2522F7" transform="translate(122,49)"/>
<path d="M0 0 C0.66 0.66 1.32 1.32 2 2 C2.55816406 1.67773438 3.11632812 1.35546875 3.69140625 1.0234375 C7.68621061 -0.74752484 11.71823491 -0.55517213 16 0 C19.41033905 1.84726699 20.6167133 3.07463641 22.09375 6.640625 C23.31519085 11.16837989 23.42128122 15.60136844 23.56640625 20.25390625 C23.72773233 23.96440607 23.96624035 26.83455152 26 30 C25 31 25 31 22.05859375 31.09765625 C20.86363281 31.08605469 19.66867187 31.07445313 18.4375 31.0625 C16.64119141 31.04896484 16.64119141 31.04896484 14.80859375 31.03515625 C13.88175781 31.02355469 12.95492188 31.01195313 12 31 C11.67 30.34 11.34 29.68 11 29 C11.66 28.01 12.32 27.02 13 26 C13.19543996 23.12588292 13.27875966 20.37117283 13.25 17.5 C13.25773437 16.72785156 13.26546875 15.95570312 13.2734375 15.16015625 C13.25993153 11.26368532 13.20675169 9.31012753 11 6 C8.69 6.33 6.38 6.66 4 7 C1.44810258 12.74176919 1.39399633 18.8241097 2 25 C2.66 25.99 3.32 26.98 4 28 C4 28.99 4 29.98 4 31 C-0.62 31 -5.24 31 -10 31 C-9 27 -9 27 -8 25 C-7.87567382 22.15495432 -7.8148359 19.34512848 -7.8125 16.5 C-7.80025391 15.71496094 -7.78800781 14.92992188 -7.77539062 14.12109375 C-7.77013746 12.07936274 -7.8777982 10.03807749 -8 8 C-8.66 7.34 -9.32 6.68 -10 6 C-9.875 4 -9.875 4 -9 2 C-6.07598231 -0.08858407 -3.53626841 -0.37223878 0 0 Z " fill="#2A26E9" transform="translate(263,62)"/>
<path d="M0 0 C0.88873597 3.09950623 1.18543782 5.98504367 1.31640625 9.203125 C1.37924805 10.67265625 1.37924805 10.67265625 1.44335938 12.171875 C1.48267578 13.18765625 1.52199219 14.2034375 1.5625 15.25 C1.60568359 16.28125 1.64886719 17.3125 1.69335938 18.375 C1.79925682 20.9165387 1.90133443 23.45817196 2 26 C5.40080577 25.89592083 5.40080577 25.89592083 9 25 C12.10699376 21.47536553 12.3866929 18.40675257 12.3125 13.8125 C12.30669922 12.24435547 12.30669922 12.24435547 12.30078125 10.64453125 C12.26039765 7.84528565 12.26039765 7.84528565 10 6 C10.125 4 10.125 4 11 2 C14.20610918 -0.37489569 17.1331529 -0.06347765 21 0 C21.01458252 0.7113208 21.02916504 1.4226416 21.04418945 2.15551758 C21.11861006 5.37506332 21.21529 8.59356518 21.3125 11.8125 C21.34633789 13.49182617 21.34633789 13.49182617 21.38085938 15.20507812 C21.41630859 16.27822266 21.45175781 17.35136719 21.48828125 18.45703125 C21.51446533 19.44678955 21.54064941 20.43654785 21.56762695 21.45629883 C22.05521216 24.32481958 22.74871895 25.23094912 25 27 C24.2890625 28.953125 24.2890625 28.953125 23 31 C20.8359375 31.609375 20.8359375 31.609375 18.375 31.75 C17.55773437 31.80671875 16.74046875 31.8634375 15.8984375 31.921875 C15.27195313 31.94765625 14.64546875 31.9734375 14 32 C13.67 31.01 13.34 30.02 13 29 C12.38125 29.495 11.7625 29.99 11.125 30.5 C6.73267243 32.60831723 2.79053853 32.85741987 -2 32 C-5.34625024 29.47323961 -6.67977847 27.96066458 -8 24 C-8.22662908 20.57178555 -8.39378179 17.14988056 -8.51757812 13.71679688 C-8.5807278 9.39612788 -8.5807278 9.39612788 -11 6 C-10.9375 4 -10.9375 4 -10 2 C-6.62176024 0.12320013 -3.82367701 -0.21849583 0 0 Z " fill="#2D2BDC" transform="translate(225,62)"/>
<path d="M0 0 C4.23107637 2.28478124 5.57352698 4.51242608 7 9 C7.27357422 12.44218703 7.4132492 15.8431718 7.47851562 19.29296875 C7.5980436 23.43941312 7.5980436 23.43941312 9.53515625 26.9921875 C10.01855469 27.32476562 10.50195312 27.65734375 11 28 C9.9375 29.5 9.9375 29.5 8 31 C4.27013478 31.26641894 1.55353929 31.1845131 -2 30 C-3.3361462 30.66101102 -4.66909086 31.32850682 -6 32 C-11.18938841 32.6651079 -15.57933301 32.85240019 -20.125 30.125 C-22.52003534 27.41062662 -22.95431632 26.39592521 -23.375 22.75 C-22.87855761 17.78557614 -21.52492587 16.44295085 -18 13 C-14.57767028 11.85922343 -11.91326783 11.90184883 -8.3125 11.9375 C-6.54326172 11.95103516 -6.54326172 11.95103516 -4.73828125 11.96484375 C-3.83464844 11.97644531 -2.93101562 11.98804687 -2 12 C-3.11854586 8.27385847 -3.11854586 8.27385847 -6 6 C-10.04451087 5.73622755 -12.47720989 6.05639166 -16 8 C-16.99 8 -17.98 8 -19 8 C-18.77905593 4.90678308 -17.94080219 3.94240213 -15.6875 1.75 C-10.94960703 -1.14793453 -5.32575459 -0.73948065 0 0 Z M-14 18 C-15.15811388 20.94729537 -15.15811388 20.94729537 -15 24 C-13.60351373 26.13147905 -12.41196038 26.80775182 -10.125 27.875 C-7.05392433 28.05565151 -5.46307068 26.73080642 -3 25 C-1.58422523 23.81575674 -1.58422523 23.81575674 -1.9375 20.4375 C-1.958125 19.303125 -1.97875 18.16875 -2 17 C-6.81571474 14.34305394 -9.61269761 14.53634022 -14 18 Z " fill="#2C2ADB" transform="translate(174,62)"/>
<path d="M0 0 C4.62 0 9.24 0 14 0 C15 2 15 2 14.25 4.875 C13.23618555 10.62809167 16.59831126 15.93900193 19 21 C19.84378975 18.94175571 20.67463622 16.87820214 21.5 14.8125 C21.9640625 13.66394531 22.428125 12.51539062 22.90625 11.33203125 C23.92126592 8.23985774 24.22120129 6.20188868 24 3 C24 2.01 24 1.02 24 0 C26.97 0 29.94 0 33 0 C33.495 0.99 33.495 0.99 34 2 C32.82772277 3.82642087 31.65256578 5.65103924 30.46533203 7.46777344 C27.61910524 12.3863113 25.87543092 17.79943403 23.9375 23.125 C17.71118356 40.19254429 17.71118356 40.19254429 12 44 C9.84375 44.30078125 9.84375 44.30078125 7.5 44.3125 C6.33984375 44.33763672 6.33984375 44.33763672 5.15625 44.36328125 C2.47572935 43.91167179 1.56895476 43.19755878 0 41 C0.3125 37.8125 0.3125 37.8125 1 35 C3.3125 34.8125 3.3125 34.8125 6 35 C7.625 36.4375 7.625 36.4375 9 38 C9.99 38.33 10.98 38.66 12 39 C12.68557879 30.91657343 10.9163916 24.98386923 7.6875 17.625 C7.28337891 16.65433594 6.87925781 15.68367188 6.46289062 14.68359375 C4.3386912 9.54259572 4.3386912 9.54259572 1.35864258 4.88427734 C0 3 0 3 0 0 Z " fill="#2724F0" transform="translate(290,63)"/>
<path d="M0 0 C3.6993284 1.8496642 4.61854355 3.12265018 6.25 6.875 C7.42481743 11.83534024 7.44265543 17.01306636 7.65625 22.0859375 C7.82640625 23.52839844 7.82640625 23.52839844 8 25 C8.66 25.33 9.32 25.66 10 26 C9.125 29.875 9.125 29.875 8 31 C4.33655389 31.13568319 1.49384279 31.16461426 -2 30 C-3.3361462 30.66101102 -4.66909086 31.32850682 -6 32 C-11.18938841 32.6651079 -15.57933301 32.85240019 -20.125 30.125 C-22.52003534 27.41062662 -22.95431632 26.39592521 -23.375 22.75 C-22.87855761 17.78557614 -21.52492587 16.44295085 -18 13 C-14.57767028 11.85922343 -11.91326783 11.90184883 -8.3125 11.9375 C-6.54326172 11.95103516 -6.54326172 11.95103516 -4.73828125 11.96484375 C-3.83464844 11.97644531 -2.93101562 11.98804687 -2 12 C-3.11854586 8.27385847 -3.11854586 8.27385847 -6 6 C-8.08293691 6.06151113 -8.08293691 6.06151113 -10.375 6.375 C-11.14585937 6.46523437 -11.91671875 6.55546875 -12.7109375 6.6484375 C-14.85515749 6.97775456 -16.90663641 7.43603447 -19 8 C-18.77905593 4.90678308 -17.94080219 3.94240213 -15.6875 1.75 C-10.94289877 -1.15203765 -5.3329647 -0.72552255 0 0 Z M-14 18 C-14.33 18.33 -14.66 18.66 -15 19 C-14.71269945 21.33944736 -14.38063221 23.6739143 -14 26 C-11.26814404 27.30059064 -11.26814404 27.30059064 -8 28 C-5.61035234 26.88483109 -3.86049542 25.86049542 -2 24 C-1.95907063 21.66702567 -1.95758277 19.33294775 -2 17 C-7.00104892 14.2408006 -9.30045792 14.908196 -14 18 Z " fill="#2928EF" transform="translate(346,62)"/>
<path d="M0 0 C0.33 0.99 0.66 1.98 1 3 C1.515625 2.505 2.03125 2.01 2.5625 1.5 C5.93424177 -0.57491801 8.11590535 -0.56495922 12 0 C14.0625 2.25 14.0625 2.25 15 5 C14.1875 7.3125 14.1875 7.3125 13 9 C9.97580475 8.41196203 6.98241547 7.77321882 4 7 C1.69401584 10.65114159 1.73210526 13.8080257 1.75 18.0625 C1.74484375 19.29097656 1.7396875 20.51945312 1.734375 21.78515625 C1.75125736 25.15154667 1.75125736 25.15154667 4 28 C4 28.99 4 29.98 4 31 C-0.62 31 -5.24 31 -10 31 C-9 27 -9 27 -8 24 C-7.87829195 21.48658719 -7.81489342 19.01309099 -7.8125 16.5 C-7.80025391 15.82324219 -7.78800781 15.14648438 -7.77539062 14.44921875 C-7.76440604 10.73642956 -7.88655384 9.17016924 -10 6 C-10 4.68 -10 3.36 -10 2 C-6.49223216 0.39644899 -3.85645121 -0.22036864 0 0 Z " fill="#2D29DB" transform="translate(197,62)"/>
<path d="M0 0 C1.65 0 3.3 0 5 0 C4.125 5.75 4.125 5.75 3 8 C4.65 8 6.3 8 8 8 C8.12375 8.721875 8.2475 9.44375 8.375 10.1875 C8.91039245 13.000026 8.91039245 13.000026 10.0625 15.5 C11.06664944 18.17773183 11.16195541 20.16578026 11 23 C8.82145293 19.7321794 7.50239966 16.61941735 6 13 C5.37237545 14.22782862 4.74803935 15.45733836 4.125 16.6875 C3.77695313 17.37199219 3.42890625 18.05648437 3.0703125 18.76171875 C1.93967982 21.12614403 0.97335801 23.56660498 0 26 C3.96 26.33 7.92 26.66 12 27 C12 27.33 12 27.66 12 28 C8.37 28.33 4.74 28.66 1 29 C5.29 29.33 9.58 29.66 14 30 C14 30.99 14 31.98 14 33 C13.505 32.505 13.505 32.505 13 32 C10.30345146 31.92680379 7.63308542 31.90757463 4.9375 31.9375 C4.17888672 31.94201172 3.42027344 31.94652344 2.63867188 31.95117188 C0.75908129 31.9629932 -1.12046899 31.98092922 -3 32 C-3.2784375 33.85625 -3.2784375 33.85625 -3.5625 35.75 C-3.66691406 36.44609375 -3.77132812 37.1421875 -3.87890625 37.859375 C-4.12547949 40.33941547 -4.12547949 40.33941547 -3 44 C-6.96 44 -10.92 44 -15 44 C-14 40 -14 40 -12.62207031 38.6472168 C-9.03931986 35.008924 -7.53808405 29.50152896 -5.59179688 24.82299805 C-4.75675332 22.82862922 -3.89479533 20.8473962 -3.03125 18.86523438 C0.88087314 9.68660041 0.88087314 9.68660041 0 0 Z " fill="#2B2BDA" transform="translate(122,49)"/>
<path d="M0 0 C0.309375 0.639375 0.61875 1.27875 0.9375 1.9375 C1.8345163 3.93610821 1.8345163 3.93610821 3 5 C3.12041574 6.46418827 3.17947467 7.93354924 3.2109375 9.40234375 C3.23929688 10.29244141 3.26765625 11.18253906 3.296875 12.09960938 C3.34884539 13.98743396 3.39315038 15.87548555 3.4296875 17.76367188 C3.460625 18.65505859 3.4915625 19.54644531 3.5234375 20.46484375 C3.54325684 21.285896 3.56307617 22.10694824 3.58349609 22.95288086 C3.83010824 25.39572706 3.83010824 25.39572706 7 27 C7 27.99 7 28.98 7 30 C-0.38461538 30.36923077 -0.38461538 30.36923077 -3.5 28.5 C-3.995 28.005 -4.49 27.51 -5 27 C-4.67 26.34 -4.34 25.68 -4 25 C-3.96281563 23.36624575 -3.9867732 21.7308671 -4.04296875 20.09765625 C-4.06423828 19.12505859 -4.08550781 18.15246094 -4.10742188 17.15039062 C-4.16071482 15.09536285 -4.22578048 13.04060595 -4.30273438 10.98632812 C-4.32013672 10.01244141 -4.33753906 9.03855469 -4.35546875 8.03515625 C-4.38278076 7.1419165 -4.41009277 6.24867676 -4.43823242 5.32836914 C-4 3 -4 3 -1.9777832 1.18530273 C-1.32511475 0.79415283 -0.67244629 0.40300293 0 0 Z " fill="#2721F7" transform="translate(194,63)"/>
<path d="M0 0 C3.875 0.875 3.875 0.875 5 2 C5.04063832 3.66617115 5.042721 5.33388095 5 7 C5.99 7 6.98 7 8 7 C8.33 13.6 8.66 20.2 9 27 C5.37 27 1.74 27 -2 27 C-1.34 25.68 -0.68 24.36 0 23 C0.37408407 20.96484715 0.37408407 20.96484715 0.44921875 18.84765625 C0.49240234 18.07099609 0.53558594 17.29433594 0.58007812 16.49414062 C0.61552734 15.69169922 0.65097656 14.88925781 0.6875 14.0625 C0.73455078 13.26392578 0.78160156 12.46535156 0.83007812 11.64257812 C1.03511682 7.58550098 1.0652741 3.96474195 0 0 Z " fill="#2823F4" transform="translate(278,65)"/>
<path d="M0 0 C2.375 -0.125 2.375 -0.125 5 0 C5.66 0.66 6.32 1.32 7 2 C7.55816406 1.67773438 8.11632812 1.35546875 8.69140625 1.0234375 C12.68666433 -0.74772598 16.71784268 -0.55432457 21 0 C24.0625 1.625 24.0625 1.625 26 4 C26.8125 7.25 26.8125 7.25 27 10 C26.34 10 25.68 10 25 10 C24.34 8.02 23.68 6.04 23 4 C20.83333333 4.83333333 20.83333333 4.83333333 20 7 C20.66 7.33 21.32 7.66 22 8 C21.91293747 10.91809581 21.80605266 13.83315711 21.6875 16.75 C21.66494141 17.575 21.64238281 18.4 21.61914062 19.25 C21.58369141 20.04921875 21.54824219 20.8484375 21.51171875 21.671875 C21.48553467 22.4050293 21.45935059 23.13818359 21.43237305 23.89355469 C21 26 21 26 18 30 C21.63 30 25.26 30 29 30 C28.67 28.68 28.34 27.36 28 26 C28.99 26.99 29.98 27.98 31 29 C30.67 29.66 30.34 30.32 30 31 C25.71 31 21.42 31 17 31 C16.67 30.34 16.34 29.68 16 29 C16.66 28.01 17.32 27.02 18 26 C18.19543996 23.12588292 18.27875966 20.37117283 18.25 17.5 C18.25773437 16.72785156 18.26546875 15.95570312 18.2734375 15.16015625 C18.25993153 11.26368532 18.20675169 9.31012753 16 6 C13.36 6.33 10.72 6.66 8 7 C7.67 6.34 7.34 5.68 7 5 C6.01 4.67 5.02 4.34 4 4 C4 3.01 4 2.02 4 1 C2.68 0.67 1.36 0.34 0 0 Z " fill="#2C2BD5" transform="translate(258,62)"/>
<path d="M0 0 C0 8.25 0 16.5 0 25 C-4 24 -4 24 -7 22 C-7.21434586 18.39631023 -6.99139902 14.88922602 -6.8125 11.28515625 C-6.67217464 8.03015748 -6.67217464 8.03015748 -8.50390625 6.1875 C-8.99761719 5.795625 -9.49132812 5.40375 -10 5 C-9.9375 2.9375 -9.9375 2.9375 -9 1 C-5.54245004 -1.59316247 -4.58579096 -0.91715819 0 0 Z " fill="#2723F4" transform="translate(245,63)"/>
<path d="M0 0 C3.28076332 1.64038166 3.82669281 5.22255514 5.0625 8.5 C6.50069835 13.08812694 6.50069835 13.08812694 9 17 C9.23192865 18.51469448 9.41215238 20.03754562 9.5625 21.5625 C9.64628906 22.38878906 9.73007812 23.21507813 9.81640625 24.06640625 C9.87699219 24.70449219 9.93757813 25.34257813 10 26 C11.32 24.68 12.64 23.36 14 22 C15 25 15 25 14.109375 26.97265625 C13.66078125 27.66230469 13.2121875 28.35195312 12.75 29.0625 C12.31171875 29.75472656 11.8734375 30.44695312 11.421875 31.16015625 C9.56105526 33.5679752 7.89698527 34.87487706 4.84375 35.30078125 C3.68359375 35.30658203 3.68359375 35.30658203 2.5 35.3125 C1.33984375 35.33763672 1.33984375 35.33763672 0.15625 35.36328125 C-2.52427065 34.91167179 -3.43104524 34.19755878 -5 32 C-4.6875 28.8125 -4.6875 28.8125 -4 26 C-1.6875 25.8125 -1.6875 25.8125 1 26 C2.625 27.4375 2.625 27.4375 4 29 C4.99 29.33 5.98 29.66 7 30 C8.10527749 20.2103994 4.44413988 12.53531334 0.64257812 3.72070312 C0 2 0 2 0 0 Z " fill="#2B29CE" transform="translate(295,72)"/>
<path d="M0 0 C-3 2 -3 2 -7 2 C-7.12375 2.639375 -7.2475 3.27875 -7.375 3.9375 C-7.58125 4.618125 -7.7875 5.29875 -8 6 C-8.99 6.495 -8.99 6.495 -10 7 C-10.061875 8.27875 -10.12375 9.5575 -10.1875 10.875 C-10.22230469 11.59429687 -10.25710938 12.31359375 -10.29296875 13.0546875 C-10.19628906 13.69664063 -10.09960938 14.33859375 -10 15 C-7.32357511 17.18490007 -7.32357511 17.18490007 -5 17 C-5 15.68 -5 14.36 -5 13 C-5.66 13 -6.32 13 -7 13 C-6.67 10.69 -6.34 8.38 -6 6 C-5.34 6.33 -4.68 6.66 -4 7 C-4 9.31 -4 11.62 -4 14 C-0.10885099 15.01911045 1.60596507 15.16782969 5.375 13.5625 C6.24125 13.046875 7.1075 12.53125 8 12 C8.33 12.66 8.66 13.32 9 14 C10.6635479 14.67441131 12.33066942 15.3400321 14 16 C15.36365283 16.95824253 16.70794169 17.94721175 18 19 C11.375 19.125 11.375 19.125 8 18 C6.6638538 18.66101102 5.33090914 19.32850682 4 20 C-1.18938841 20.6651079 -5.57933301 20.85240019 -10.125 18.125 C-12.52003534 15.41062662 -12.95431632 14.39592521 -13.375 10.75 C-12.87855761 5.78557614 -11.52492587 4.44295085 -8 1 C-5.07175348 0.02391783 -3.04386724 -0.08226668 0 0 Z " fill="#2B2BD9" transform="translate(336,74)"/>
<path d="M0 0 C1.32 0 2.64 0 4 0 C4.06058594 1.24136719 4.12117187 2.48273438 4.18359375 3.76171875 C4.26803623 5.40365577 4.35268236 7.04558232 4.4375 8.6875 C4.47681641 9.50412109 4.51613281 10.32074219 4.55664062 11.16210938 C4.76898003 15.19655811 5.04447922 19.05747309 6 23 C7.98 23.66 9.96 24.32 12 25 C12 25.66 12 26.32 12 27 C10.741875 27.04125 9.48375 27.0825 8.1875 27.125 C7.47980469 27.14820312 6.77210938 27.17140625 6.04296875 27.1953125 C4 27 4 27 1 25 C1 24.34 1 23.68 1 23 C0.34 23 -0.32 23 -1 23 C-1.02887512 19.35418313 -1.04675585 15.70839537 -1.0625 12.0625 C-1.07087891 11.02158203 -1.07925781 9.98066406 -1.08789062 8.90820312 C-1.09272461 7.42416992 -1.09272461 7.42416992 -1.09765625 5.91015625 C-1.10289307 4.99371338 -1.10812988 4.07727051 -1.11352539 3.13305664 C-1 1 -1 1 0 0 Z " fill="#2521FB" transform="translate(220,66)"/>
<path d="M0 0 C2.97 0.495 2.97 0.495 6 1 C6.12375 2.11375 6.2475 3.2275 6.375 4.375 C6.6465813 8.03103677 6.6465813 8.03103677 9 10 C9.99 10 10.98 10 12 10 C14.09230769 14.43076923 14.09230769 14.43076923 13.625 17.3125 C13.315625 18.1478125 13.315625 18.1478125 13 19 C10.69 19 8.38 19 6 19 C5.8046875 17.01432292 5.609375 15.02864583 5.4140625 13.04296875 C5.07334609 10.70011858 5.07334609 10.70011858 3 8 C-0.34613512 7.41312216 -0.34613512 7.41312216 -4.125 7.3125 C-5.40632813 7.24675781 -6.68765625 7.18101563 -8.0078125 7.11328125 C-8.99523437 7.07589844 -9.98265625 7.03851563 -11 7 C-10.67 6.34 -10.34 5.68 -10 5 C-6.37 5 -2.74 5 1 5 C0.67 3.35 0.34 1.7 0 0 Z " fill="#2722FB" transform="translate(133,72)"/>
<path d="M0 0 C3.25 1.875 3.25 1.875 5 4 C5 4.66 5 5.32 5 6 C3.02 6 1.04 6 -1 6 C-1 7.98 -1 9.96 -1 12 C-1.66 11.01 -2.32 10.02 -3 9 C-4.28014938 7.24582623 -4.28014938 7.24582623 -6 6 C-8.16146108 5.81623661 -8.16146108 5.81623661 -10.4375 6.25 C-11.58025391 6.41242188 -11.58025391 6.41242188 -12.74609375 6.578125 C-14.85789542 6.97340157 -16.923294 7.45125764 -19 8 C-18.77905593 4.90678308 -17.94080219 3.94240213 -15.6875 1.75 C-10.95860769 -1.14242928 -5.31584546 -0.75834439 0 0 Z " fill="#2926DE" transform="translate(346,62)"/>
<path d="M0 0 C3 1 3 1 4.1796875 2.546875 C5.36549312 6.09299848 5.20978989 9.55837849 5.125 13.25 C5.11597656 13.99507812 5.10695312 14.74015625 5.09765625 15.5078125 C5.07418358 17.33868059 5.03831525 19.16938238 5 21 C2.69 21 0.38 21 -2 21 C-1.96519531 20.07767578 -1.96519531 20.07767578 -1.9296875 19.13671875 C-1.91164062 18.32847656 -1.89359375 17.52023438 -1.875 16.6875 C-1.84019531 15.48673828 -1.84019531 15.48673828 -1.8046875 14.26171875 C-1.84182678 11.71611424 -1.84182678 11.71611424 -4 9 C-3.34 8.67 -2.68 8.34 -2 8 C-2 5.69 -2 3.38 -2 1 C-1.34 0.67 -0.68 0.34 0 0 Z " fill="#2723F9" transform="translate(174,66)"/>
<path d="M0 0 C0 0.99 0 1.98 0 3 C0.33 3.33 0.66 3.66 1 4 C1.14115161 6.67058851 1.04247107 9.32432238 1 12 C0.67 12 0.34 12 0 12 C-0.33 9.69 -0.66 7.38 -1 5 C-5.18993811 4.04774134 -7.28784151 3.82390709 -11 6 C-11.99 6 -12.98 6 -14 6 C-14.33 8.31 -14.66 10.62 -15 13 C-14.34 13 -13.68 13 -13 13 C-13 14.32 -13 15.64 -13 17 C-13.99 17.33 -14.98 17.66 -16 18 C-17.5 17 -17.5 17 -19 15 C-19.45432663 12.15172149 -19.27929785 9.93262743 -19 7 C-18.01 6.34 -17.02 5.68 -16 5 C-15.67 4.01 -15.34 3.02 -15 2 C-9.86308839 0.00813631 -5.47549707 -0.1921227 0 0 Z " fill="#1E1FEA" transform="translate(344,74)"/>
<path d="M0 0 C2.97 0 5.94 0 9 0 C9.33 0.66 9.66 1.32 10 2 C9.15551758 3.55859375 9.15551758 3.55859375 7.83203125 5.4375 C4.62564572 10.34412386 2.68216522 15.51183194 0.6875 21 C0.32849609 21.96550781 -0.03050781 22.93101563 -0.40039062 23.92578125 C-1.27487239 26.28105213 -2.14118582 28.63898121 -3 31 C-4.35304209 26.94087374 -3.15216503 25.22850409 -1.5625 21.3125 C-0.85287109 19.54326172 -0.85287109 19.54326172 -0.12890625 17.73828125 C0.24363281 16.83464844 0.61617188 15.93101563 1 15 C0.01 15.33 -0.98 15.66 -2 16 C-1.67 14.783125 -1.34 13.56625 -1 12.3125 C-0.19792297 9.11548873 0.18922203 6.31138548 0 3 C0 2.01 0 1.02 0 0 Z " fill="#2726F0" transform="translate(314,63)"/>
<path d="M0 0 C0.99 0.33 1.98 0.66 3 1 C3.268125 2.134375 3.53625 3.26875 3.8125 4.4375 C4.60888532 8.20069922 4.60888532 8.20069922 7.75 9.4375 C10.91604963 9.98547013 13.79450997 10.15264238 17 10 C17 12 17 12 15.83984375 13.59375 C12.68705339 16.00352607 9.44036431 15.5290299 5.609375 15.40234375 C3 15 3 15 0.3125 13.0625 C-1.42903407 8.99892051 -1.55047731 5.36772162 -1 1 C-0.67 0.67 -0.34 0.34 0 0 Z " fill="#231FED" transform="translate(154,79)"/>
<path d="M0 0 C2.46044487 0.83453686 4.6573532 1.85258116 7 3 C5.9375 5 5.9375 5 4 7 C0.24315896 7.33543224 -2.41996227 7.19334591 -6 6 C-8.14255793 6.38932856 -8.14255793 6.38932856 -10 7 C-9 5 -9 5 -8 4 C-9.32 3.67 -10.64 3.34 -12 3 C-7.87590751 0.00066001 -5.06091385 -0.52354281 0 0 Z " fill="#2625EA" transform="translate(178,86)"/>
<path d="M0 0 C2.56842187 2.56842187 3.29349069 5.03958551 4.5625 8.4375 C4.99691406 9.59121094 5.43132812 10.74492188 5.87890625 11.93359375 C6.61447783 13.94552299 7.32258397 15.9677519 8 18 C8.99 18.33 9.98 18.66 11 19 C10.67 19.99 10.34 20.98 10 22 C5.05 22 0.1 22 -5 22 C-4.125 13.25 -4.125 13.25 -3 11 C-2 12 -2 12 -1.90234375 13.84765625 C-1.93489583 15.8984375 -1.96744792 17.94921875 -2 20 C1.465 19.505 1.465 19.505 5 19 C4.22914811 14.46414519 2.65937798 10.60475555 0.83984375 6.40234375 C0 4 0 4 0 0 Z " fill="#2D2BCC" transform="translate(141,71)"/>
<path d="M0 0 C1.65 0 3.3 0 5 0 C5.33 2.97 5.66 5.94 6 9 C6.66 9 7.32 9 8 9 C8 10.65 8 12.3 8 14 C6.35 13.67 4.7 13.34 3 13 C2.67 11.68 2.34 10.36 2 9 C0.68 8.67 -0.64 8.34 -2 8 C-1.34 5.36 -0.68 2.72 0 0 Z M6 14 C6.66 14.66 7.32 15.32 8 16 C7.34 16 6.68 16 6 16 C6 15.34 6 14.68 6 14 Z " fill="#2622FA" transform="translate(127,49)"/>
<path d="M0 0 C0.66 0 1.32 0 2 0 C2 0.66 2 1.32 2 2 C3.65 2 5.3 2 7 2 C7.66 3.32 8.32 4.64 9 6 C8.01 6.495 8.01 6.495 7 7 C11.34242429 11.34242429 15.13551546 11.7444669 21 12 C21.33 11.01 21.66 10.02 22 9 C24.31 9 26.62 9 29 9 C25.41867859 12.03034888 21.84855486 13.99430289 17.046875 14.00390625 C12.51377802 13.58000978 8.79859859 12.61681236 5 10 C0 3.56200528 0 3.56200528 0 0 Z " fill="#5B81EC" transform="translate(7,79)"/>
<path d="M0 0 C-0.33 1.32 -0.66 2.64 -1 4 C-1 3.01 -1 2.02 -1 1 C-3.68045542 1.70040593 -3.68045542 1.70040593 -6 4 C-6.66932102 7.66898811 -6.46646957 11.28578012 -6.3125 15 C-6.28994141 16.010625 -6.26738281 17.02125 -6.24414062 18.0625 C-6.20050008 19.93779677 -6.14661189 21.81290198 -6.0793457 23.6875 C-6.01861444 25.45748925 -6 27.22896916 -6 29 C-5.34 29.66 -4.68 30.32 -4 31 C-5.98 31 -7.96 31 -10 31 C-9.42415568 28.61435923 -8.77772405 26.33317216 -8 24 C-7.87829195 21.48658719 -7.81489342 19.01309099 -7.8125 16.5 C-7.80025391 15.82324219 -7.78800781 15.14648438 -7.77539062 14.44921875 C-7.76440604 10.73642956 -7.88655384 9.17016924 -10 6 C-10 4.68 -10 3.36 -10 2 C-6.49223216 0.39644899 -3.85645121 -0.22036864 0 0 Z " fill="#2F2ECB" transform="translate(197,62)"/>
<path d="M0 0 C4.62 0 9.24 0 14 0 C15.60031344 3.20062687 14.03173691 5.72271806 13 9 C12.34 9 11.68 9 11 9 C11.33 6.36 11.66 3.72 12 1 C10.02 1.33 8.04 1.66 6 2 C5.67 4.31 5.34 6.62 5 9 C2.28404014 5.8459821 1.03153759 4.12615036 0 0 Z " fill="#2929DB" transform="translate(290,63)"/>
<path d="M0 0 C0 0.33 0 0.66 0 1 C-3.63 1 -7.26 1 -11 1 C-11 1.66 -11 2.32 -11 3 C-9.35 3 -7.7 3 -6 3 C-6 3.66 -6 4.32 -6 5 C-6.60328125 5.13277344 -7.2065625 5.26554687 -7.828125 5.40234375 C-8.62734375 5.57894531 -9.4265625 5.75554687 -10.25 5.9375 C-11.43335938 6.19853516 -11.43335938 6.19853516 -12.640625 6.46484375 C-14.76878703 6.947556 -16.88532842 7.46163178 -19 8 C-18.77905593 4.90678308 -17.94080219 3.94240213 -15.6875 1.75 C-11.00918714 -1.19262431 -5.30004683 -0.30874059 0 0 Z " fill="#2D2BCF" transform="translate(346,62)"/>
<path d="M0 0 C1.33804688 0.04060547 1.33804688 0.04060547 2.703125 0.08203125 C3.37859375 0.11683594 4.0540625 0.15164062 4.75 0.1875 C4.75 1.1775 4.75 2.1675 4.75 3.1875 C2.11 3.1875 -0.53 3.1875 -3.25 3.1875 C-3.25 3.8475 -3.25 4.5075 -3.25 5.1875 C-5.89738916 6.6481285 -7.14448334 7.1875 -10.25 7.1875 C-9.88752904 4.55958554 -9.48545243 3.41010957 -7.53125 1.5625 C-4.78129944 -0.09500445 -3.18021544 -0.12553482 0 0 Z " fill="#2421F4" transform="translate(165.25,62.8125)"/>
<path d="M0 0 C1 2 1 2 0.28735352 4.33837891 C-0.09493408 5.29147949 -0.47722168 6.24458008 -0.87109375 7.2265625 C-1.28037109 8.2578125 -1.68964844 9.2890625 -2.11132812 10.3515625 C-2.7677832 11.97191406 -2.7677832 11.97191406 -3.4375 13.625 C-3.87126953 14.71296875 -4.30503906 15.8009375 -4.75195312 16.921875 C-5.82780122 19.61740648 -6.91074465 22.30986459 -8 25 C-9.35304209 20.94087374 -8.15216503 19.22850409 -6.5625 15.3125 C-6.08941406 14.13300781 -5.61632812 12.95351562 -5.12890625 11.73828125 C-4.75636719 10.83464844 -4.38382812 9.93101563 -4 9 C-4.99 9.33 -5.98 9.66 -7 10 C-6.34 7.36 -5.68 4.72 -5 2 C-4.67 2.99 -4.34 3.98 -4 5 C-3.34 5 -2.68 5 -2 5 C-2 3.68 -2 2.36 -2 1 C-1.34 0.67 -0.68 0.34 0 0 Z " fill="#3031CB" transform="translate(319,69)"/>
<path d="M0 0 C0 0.66 0 1.32 0 2 C-1.65 2.66 -3.3 3.32 -5 4 C-4.67 5.32 -4.34 6.64 -4 8 C-7.9585305 9.31951017 -10.37094558 8.54301814 -14.25 7.25 C-16 6 -16 6 -16.75 3.375 C-16.8325 2.59125 -16.915 1.8075 -17 1 C-15 2 -15 2 -13 5 C-12.22914062 4.6390625 -11.45828125 4.278125 -10.6640625 3.90625 C-9.15972656 3.21015625 -9.15972656 3.21015625 -7.625 2.5 C-6.62726563 2.0359375 -5.62953125 1.571875 -4.6015625 1.09375 C-2 0 -2 0 0 0 Z " fill="#79D6F6" transform="translate(81,29)"/>
<path d="M0 0 C2.97 0.495 2.97 0.495 6 1 C6 2.32 6 3.64 6 5 C5.34 5 4.68 5 4 5 C4 5.66 4 6.32 4 7 C-0.95 7 -5.9 7 -11 7 C-10.67 6.34 -10.34 5.68 -10 5 C-6.37 5 -2.74 5 1 5 C0.67 3.35 0.34 1.7 0 0 Z " fill="#201DF1" transform="translate(133,72)"/>
<path d="M0 0 C-0.33 2.97 -0.66 5.94 -1 9 C-1.99 9.33 -2.98 9.66 -4 10 C-4 9.34 -4 8.68 -4 8 C-4.99 8 -5.98 8 -7 8 C-6.74438677 5.6568787 -6.40729228 3.32156597 -6 1 C-4 0 -4 0 0 0 Z " fill="#2821FB" transform="translate(302,64)"/>
<path d="M0 0 C3.71888239 0.50712033 6.73454239 1.11608215 10 3 C9.67 4.32 9.34 5.64 9 7 C5.625 7.125 5.625 7.125 2 7 C0 5 0 5 -0.125 2.375 C-0.08375 1.59125 -0.0425 0.8075 0 0 Z " fill="#2623EF" transform="translate(292,99)"/>
<path d="M0 0 C0.99 0 1.98 0 3 0 C3 2.31 3 4.62 3 7 C3.66 7 4.32 7 5 7 C5 8.32 5 9.64 5 11 C4.01 11.33 3.02 11.66 2 12 C0.5 11 0.5 11 -1 9 C-1.33190332 6.24520245 -1.18037589 3.79582634 -1 1 C-0.67 0.67 -0.34 0.34 0 0 Z " fill="#2422FA" transform="translate(326,80)"/>
<path d="M0 0 C-3 2 -3 2 -7 2 C-7.12375 2.639375 -7.2475 3.27875 -7.375 3.9375 C-7.58125 4.618125 -7.7875 5.29875 -8 6 C-8.99 6.495 -8.99 6.495 -10 7 C-10.43933257 12.53069113 -10.43933257 12.53069113 -8.5 17.5 C-8.005 17.995 -7.51 18.49 -7 19 C-10.16115776 17.63016497 -10.9927092 17.0109362 -13 14 C-13.43492196 10.70701945 -13.69293789 8.19665043 -11.984375 5.24609375 C-8.34585237 0.69794046 -5.63371917 -0.15226268 0 0 Z " fill="#2D2DCB" transform="translate(336,74)"/>
<path d="M0 0 C0.66 0.66 1.32 1.32 2 2 C0.37585622 2.19477739 -1.24936423 2.38059458 -2.875 2.5625 C-3.77992187 2.66691406 -4.68484375 2.77132813 -5.6171875 2.87890625 C-8 3 -8 3 -10 2 C-10.78375 2.33 -11.5675 2.66 -12.375 3 C-15.27953363 4.106489 -16.13766162 3.87697176 -19 3 C-12.56785297 -0.12878968 -7.084987 -2.16825033 0 0 Z " fill="#7CD6EF" transform="translate(101,25)"/>
<path d="M0 0 C2.2477975 2.05233685 3.0022242 3.00667261 4 6 C4.07051114 8.73865287 4.09357765 11.45027588 4.0625 14.1875 C4.05798828 14.93708984 4.05347656 15.68667969 4.04882812 16.45898438 C4.03706354 18.30602383 4.01912865 20.15302213 4 22 C3.34 22 2.68 22 2 22 C1.93941406 20.91460937 1.87882813 19.82921875 1.81640625 18.7109375 C1.73193936 17.26561514 1.64729449 15.82030318 1.5625 14.375 C1.52318359 13.66214844 1.48386719 12.94929688 1.44335938 12.21484375 C1.19690319 8.08196318 0.76529947 4.07730976 0 0 Z " fill="#3532CE" transform="translate(177,65)"/>
<path d="M0 0 C2.9553686 3.48056965 4.58197285 7.36409187 6.25 11.5625 C6.53101563 12.23474609 6.81203125 12.90699219 7.1015625 13.59960938 C9.12169051 18.63492846 9.12169051 18.63492846 8 22 C2.25968109 13.738041 2.25968109 13.738041 3 9 C2.34 9 1.68 9 1 9 C0.67 6.03 0.34 3.06 0 0 Z " fill="#312ECF" transform="translate(132,49)"/>
<path d="M0 0 C3.28076332 1.64038166 3.82669281 5.22255514 5.0625 8.5 C6.50069835 13.08812694 6.50069835 13.08812694 9 17 C9.07226502 18.85287502 9.0838122 20.70833878 9.0625 22.5625 C9.05347656 23.57441406 9.04445313 24.58632812 9.03515625 25.62890625 C9.02355469 26.41136719 9.01195312 27.19382812 9 28 C8.67 28 8.34 28 8 28 C7.92523438 27.46375 7.85046875 26.9275 7.7734375 26.375 C6.6522935 19.69210241 4.50324572 13.63810391 2.03271484 7.359375 C0 2.17651714 0 2.17651714 0 0 Z " fill="#3030C7" transform="translate(295,72)"/>
<path d="M0 0 C3.90760101 5.09687088 4.80519482 8.57935561 4 15 C2.90946695 17.61918417 1.60942098 19.63616293 0 22 C-1.39852912 17.80441263 0.22736864 15.95433149 2 12 C2.69140522 9.22111387 2.69140522 9.22111387 3 7 C1.68 6.34 0.36 5.68 -1 5 C-0.67 3.35 -0.34 1.7 0 0 Z " fill="#75D1EC" transform="translate(108,32)"/>
<path d="M0 0 C1.60332791 -0.08121924 3.20784026 -0.13929134 4.8125 -0.1875 C6.15248047 -0.23970703 6.15248047 -0.23970703 7.51953125 -0.29296875 C10 0 10 0 11.8125 1.25 C13.91550277 4.34916197 13.17947602 7.35065417 13 11 C12.67 11 12.34 11 12 11 C11.67 8.69 11.34 6.38 11 4 C10.13375 3.855625 9.2675 3.71125 8.375 3.5625 C6.125 3.1875 3.875 2.8125 1.625 2.4375 C0.75875 2.293125 -0.1075 2.14875 -1 2 C-0.67 1.34 -0.34 0.68 0 0 Z " fill="#2522DD" transform="translate(160,75)"/>
<path d="M0 0 C2 1 2 1 2.9375 2.9375 C3.95345922 5.31971493 3.95345922 5.31971493 7 7 C6.34 7 5.68 7 5 7 C5.66708984 8.37285156 5.66708984 8.37285156 6.34765625 9.7734375 C6.91355469 10.96195313 7.47945312 12.15046875 8.0625 13.375 C8.63097656 14.55835937 9.19945312 15.74171875 9.78515625 16.9609375 C10.18605469 17.96382812 10.58695313 18.96671875 11 20 C10.67 20.66 10.34 21.32 10 22 C8.51011757 19.27655418 7.03506263 16.54534386 5.5625 13.8125 C5.14162109 13.04357422 4.72074219 12.27464844 4.28710938 11.48242188 C2.24987575 7.68501839 0.47990505 4.35404764 0 0 Z " fill="#657EE0" transform="translate(52,83)"/>
<path d="M0 0 C0.33 0.99 0.66 1.98 1 3 C1.66 3 2.32 3 3 3 C3 3.99 3 4.98 3 6 C-0.3 6 -3.6 6 -7 6 C-7 5.01 -7 4.02 -7 3 C-4.69 2.01 -2.38 1.02 0 0 Z " fill="#2522F7" transform="translate(262,87)"/>
<path d="M0 0 C2.64 0 5.28 0 8 0 C4.38970639 3.05486382 0.81153178 4.99457233 -4.0234375 5.00390625 C-8.15529293 4.62758484 -10.98463008 3.88972951 -14 1 C-13.360625 1.144375 -12.72125 1.28875 -12.0625 1.4375 C-8.06155212 2.17236798 -4.04495104 2.58581111 0 3 C0 2.01 0 1.02 0 0 Z " fill="#617DE3" transform="translate(28,88)"/>
<path d="M0 0 C0.66 0 1.32 0 2 0 C1.54554036 1.41791408 1.08625056 2.83428046 0.625 4.25 C0.36976562 5.03890625 0.11453125 5.8278125 -0.1484375 6.640625 C-0.95173667 8.86627958 -1.89711662 10.90931672 -3 13 C-3.66 12.34 -4.32 11.68 -5 11 C-4.7578125 8.8359375 -4.7578125 8.8359375 -4.125 6.375 C-3.92132813 5.55773437 -3.71765625 4.74046875 -3.5078125 3.8984375 C-3.34023437 3.27195312 -3.17265625 2.64546875 -3 2 C-2.01 2 -1.02 2 0 2 C0 1.34 0 0.68 0 0 Z " fill="#2423ED" transform="translate(123,62)"/>
<path d="M0 0 C1.98 0 3.96 0 6 0 C2.08226734 3.00359504 -0.02974635 4.15137897 -5 4.1875 C-6.3303125 4.20876953 -6.3303125 4.20876953 -7.6875 4.23046875 C-10 4 -10 4 -12 2 C-8.04 2 -4.08 2 0 2 C0 1.34 0 0.68 0 0 Z " fill="#647BDE" transform="translate(80,107)"/>
<path d="M0 0 C1.1875 1.6875 1.1875 1.6875 2 4 C0.6875 6.4375 0.6875 6.4375 -1 9 C-1.70670728 11.69254991 -1.70670728 11.69254991 -2 14 C-2.66 13.67 -3.32 13.34 -4 13 C-3.40546697 3.40546697 -3.40546697 3.40546697 0 0 Z " fill="#6981E7" transform="translate(10,64)"/>
<path d="M0 0 C2.375 -0.125 2.375 -0.125 5 0 C5.66 0.66 6.32 1.32 7 2 C9.10820797 1.6814823 9.10820797 1.6814823 11 1 C11 1.66 11 2.32 11 3 C10.67 3.33 10.34 3.66 10 4 C11.98 4 13.96 4 16 4 C16 4.33 16 4.66 16 5 C13.36 5.66 10.72 6.32 8 7 C7.67 6.34 7.34 5.68 7 5 C6.01 4.67 5.02 4.34 4 4 C4 3.01 4 2.02 4 1 C2.68 0.67 1.36 0.34 0 0 Z " fill="#2B2ECB" transform="translate(258,62)"/>
<path d="M0 0 C1.32 0 2.64 0 4 0 C4.13277344 0.62648437 4.26554687 1.25296875 4.40234375 1.8984375 C4.57894531 2.71570312 4.75554687 3.53296875 4.9375 4.375 C5.19853516 5.59316406 5.19853516 5.59316406 5.46484375 6.8359375 C5.92330693 9.029463 5.92330693 9.029463 7 11 C9.01669827 12.13350534 9.01669827 12.13350534 11 13 C9.35 13.33 7.7 13.66 6 14 C4.99770632 11.85521084 3.99807145 9.70925278 3 7.5625 C2.1646875 5.77005859 2.1646875 5.77005859 1.3125 3.94140625 C0 1 0 1 0 0 Z " fill="#6AC2FD" transform="translate(75,53)"/>
<path d="M0 0 C1.23556641 0.01740234 1.23556641 0.01740234 2.49609375 0.03515625 C3.32238281 0.04417969 4.14867187 0.05320313 5 0.0625 C5.63808594 0.07410156 6.27617187 0.08570313 6.93359375 0.09765625 C7.26359375 0.75765625 7.59359375 1.41765625 7.93359375 2.09765625 C6.94359375 3.08765625 5.95359375 4.07765625 4.93359375 5.09765625 C4.93359375 3.77765625 4.93359375 2.45765625 4.93359375 1.09765625 C3.94359375 1.09765625 2.95359375 1.09765625 1.93359375 1.09765625 C1.93359375 1.75765625 1.93359375 2.41765625 1.93359375 3.09765625 C1.27359375 3.09765625 0.61359375 3.09765625 -0.06640625 3.09765625 C-0.06640625 4.74765625 -0.06640625 6.39765625 -0.06640625 8.09765625 C-0.39640625 8.09765625 -0.72640625 8.09765625 -1.06640625 8.09765625 C-1.72640625 5.78765625 -2.38640625 3.47765625 -3.06640625 1.09765625 C-2.06640625 0.09765625 -2.06640625 0.09765625 0 0 Z " fill="#2E2ACB" transform="translate(316.06640625,62.90234375)"/>
<path d="M0 0 C0.66 0.33 1.32 0.66 2 1 C0.61133677 1.9893091 -0.78629851 2.96603078 -2.1875 3.9375 C-2.96480469 4.48277344 -3.74210937 5.02804688 -4.54296875 5.58984375 C-7.07950299 7.0456289 -9.1218182 7.59613435 -12 8 C-11 5 -11 5 -8.56640625 3.578125 C-7.57511719 3.13984375 -6.58382812 2.7015625 -5.5625 2.25 C-4.57378906 1.80140625 -3.58507812 1.3528125 -2.56640625 0.890625 C-1.29603516 0.44976562 -1.29603516 0.44976562 0 0 Z " fill="#2540ED" transform="translate(49,44)"/>
<path d="M0 0 C2.52631142 3.12781414 4.42373366 6.29577411 6 10 C5.67 10.99 5.34 11.98 5 13 C4.34 13 3.68 13 3 13 C2 10 2 10 2 8 C1.01 7.34 0.02 6.68 -1 6 C-0.67 4.02 -0.34 2.04 0 0 Z " fill="#72D4F0" transform="translate(58,17)"/>
<path d="M0 0 C0.99 0.33 1.98 0.66 3 1 C3.33 3.31 3.66 5.62 4 8 C2.35 7.67 0.7 7.34 -1 7 C-1.04254356 5.00045254 -1.04080783 2.99958364 -1 1 C-0.67 0.67 -0.34 0.34 0 0 Z " fill="#2721F9" transform="translate(154,79)"/>
<path d="M0 0 C2.97 0.495 2.97 0.495 6 1 C6 2.65 6 4.3 6 6 C2.73045798 5.43628586 1.17424117 4.50037734 -1 2 C-0.67 1.34 -0.34 0.68 0 0 Z " fill="#2523F6" transform="translate(204,63)"/>
<path d="M0 0 C0.66 0.33 1.32 0.66 2 1 C2 1.99 2 2.98 2 4 C2.99 4 3.98 4 5 4 C5.33 4.99 5.66 5.98 6 7 C5.2575 6.814375 4.515 6.62875 3.75 6.4375 C1.05009037 6.00796892 -0.44631077 6.14877026 -3 7 C-2 5 -2 5 -1 4 C-2.32 3.67 -3.64 3.34 -5 3 C-2.625 1.4375 -2.625 1.4375 0 0 Z " fill="#2A2CD0" transform="translate(171,86)"/>
<path d="M0 0 C2.625 -0.1875 2.625 -0.1875 5 0 C5 0.99 5 1.98 5 3 C5.33 3.33 5.66 3.66 6 4 C6.14115161 6.67058851 6.04247107 9.32432238 6 12 C5.67 12 5.34 12 5 12 C4.67 9.69 4.34 7.38 4 5 C2.02 4.34 0.04 3.68 -2 3 C-1.34 2.01 -0.68 1.02 0 0 Z " fill="#2427CE" transform="translate(339,74)"/>
<path d="M0 0 C0.66 0.33 1.32 0.66 2 1 C-4.625 4.875 -4.625 4.875 -8 6 C-8.33 6.66 -8.66 7.32 -9 8 C-11.0625 8.625 -11.0625 8.625 -13 9 C-13 8.34 -13 7.68 -13 7 C-10.91796875 5.52734375 -10.91796875 5.52734375 -8.1875 3.9375 C-7.29417969 3.41027344 -6.40085937 2.88304687 -5.48046875 2.33984375 C-3 1 -3 1 0 0 Z " fill="#6E8CE4" transform="translate(24,55)"/>
<path d="M0 0 C0.66 0 1.32 0 2 0 C2.556875 0.7115625 2.556875 0.7115625 3.125 1.4375 C6.10178935 3.91815779 9.18902265 3.68762481 13 4 C13.33 3.01 13.66 2.02 14 1 C14.99 1.66 15.98 2.32 17 3 C12.78210741 5.81192839 8.95658612 5.68954144 4 5 C1.375 3.0625 1.375 3.0625 0 1 C0 0.67 0 0.34 0 0 Z " fill="#2728D0" transform="translate(219,89)"/>
<path d="M0 0 C1.23556641 0.01740234 1.23556641 0.01740234 2.49609375 0.03515625 C3.32238281 0.04417969 4.14867187 0.05320312 5 0.0625 C5.63808594 0.07410156 6.27617187 0.08570312 6.93359375 0.09765625 C6.60359375 1.08765625 6.27359375 2.07765625 5.93359375 3.09765625 C2.55859375 3.22265625 2.55859375 3.22265625 -1.06640625 3.09765625 C-1.72640625 2.43765625 -2.38640625 1.77765625 -3.06640625 1.09765625 C-2.06640625 0.09765625 -2.06640625 0.09765625 0 0 Z " fill="#1E1FED" transform="translate(334.06640625,90.90234375)"/>
<path d="M0 0 C0.66 0 1.32 0 2 0 C1.67 2.64 1.34 5.28 1 8 C0.01 8 -0.98 8 -2 8 C-2.125 5.125 -2.125 5.125 -2 2 C-1.34 1.34 -0.68 0.68 0 0 Z " fill="#2421F6" transform="translate(115,82)"/>
<path d="M0 0 C0.33 0 0.66 0 1 0 C1.33 3.63 1.66 7.26 2 11 C1.67 10.01 1.34 9.02 1 8 C-0.98 8.99 -0.98 8.99 -3 10 C-2.01 6.7 -1.02 3.4 0 0 Z " fill="#3331DE" transform="translate(116,74)"/>
<path d="M0 0 C3.3 0 6.6 0 10 0 C9.34 1.32 8.68 2.64 8 4 C5.36 3.34 2.72 2.68 0 2 C0 1.34 0 0.68 0 0 Z " fill="#271FFA" transform="translate(335,63)"/>
<path d="M0 0 C2.475 0.99 2.475 0.99 5 2 C5 2.99 5 3.98 5 5 C3.02 5 1.04 5 -1 5 C-1.33 4.01 -1.66 3.02 -2 2 C-1.34 2 -0.68 2 0 2 C0 1.34 0 0.68 0 0 Z " fill="#1F21F9" transform="translate(194,88)"/>
<path d="M0 0 C0 0.66 0 1.32 0 2 C-0.99 2.66 -1.98 3.32 -3 4 C-2.01 4.33 -1.02 4.66 0 5 C-2.64738916 6.4606285 -3.89448334 7 -7 7 C-6.61402985 4.20171644 -6.19863427 3.1794116 -4.0625 1.25 C-2 0 -2 0 0 0 Z " fill="#2F35C1" transform="translate(162,63)"/>
<path d="M0 0 C0.66 1.32 1.32 2.64 2 4 C1.01 5.485 1.01 5.485 0 7 C-1.65 6.67 -3.3 6.34 -5 6 C-5.33 5.01 -5.66 4.02 -6 3 C-4.02 3.66 -2.04 4.32 0 5 C0 3.35 0 1.7 0 0 Z " fill="#372AC8" transform="translate(210,64)"/>
<path d="M0 0 C1.953125 0.7109375 1.953125 0.7109375 4 2 C4.609375 4.1640625 4.609375 4.1640625 4.75 6.625 C4.80671875 7.44226563 4.8634375 8.25953125 4.921875 9.1015625 C4.94765625 9.72804688 4.9734375 10.35453125 5 11 C3.33167423 8.49751135 2.37618326 6.58850813 1.375 3.8125 C1.11460937 3.09707031 0.85421875 2.38164063 0.5859375 1.64453125 C0.39257812 1.10183594 0.19921875 0.55914062 0 0 Z " fill="#302DCE" transform="translate(128,61)"/>
<path d="M0 0 C2.15377564 2.62198774 3.40072174 4.64404172 4 8 C3.34 8 2.68 8 2 8 C2 7.34 2 6.68 2 6 C1.01 6.33 0.02 6.66 -1 7 C-0.67 4.69 -0.34 2.38 0 0 Z " fill="#5E82E3" transform="translate(83,70)"/>
<path d="M0 0 C1.65 0 3.3 0 5 0 C4.67 1.98 4.34 3.96 4 6 C3.67 5.01 3.34 4.02 3 3 C2.01 3 1.02 3 0 3 C0 2.01 0 1.02 0 0 Z " fill="#2629E2" transform="translate(122,49)"/>
<path d="M0 0 C0.103125 0.598125 0.20625 1.19625 0.3125 1.8125 C1.08876455 4.28243264 2.07088921 5.32251235 4 7 C2.02 7 0.04 7 -2 7 C-1.42415568 4.61435923 -0.77772405 2.33317216 0 0 Z " fill="#2D29C0" transform="translate(189,86)"/>
</svg>
