<?xml version="1.0" encoding="UTF-8"?>
<svg version="1.1" xmlns="http://www.w3.org/2000/svg" width="194" height="188">
<path d="M0 0 C4.62707479 3.98911044 7.09936794 8.38823103 9.8125 13.75 C10.23901855 14.57604736 10.66553711 15.40209473 11.10498047 16.25317383 C15.27951564 24.40275448 19.18493211 32.67718429 23 41 C27.18941492 40.36045788 30.5826493 38.94340684 34.40234375 37.12890625 C35.00252823 36.84651596 35.60271271 36.56412567 36.22108459 36.2731781 C38.12905865 35.37480564 40.03350352 34.46926837 41.9375 33.5625 C43.83825941 32.66005585 45.73976371 31.75931085 47.64320374 30.86253357 C49.37325961 30.0470743 51.10064848 29.22596383 52.82788086 28.40454102 C61.4889408 24.56962392 69.3395733 23.32462928 78.375 26.75 C86.2890735 30.37000207 90.25778153 35.20090205 94 43 C96.78892233 50.86744027 96.11130554 57.75141315 93.02734375 65.41796875 C87.99716251 75.59769146 78.11584387 79.72196762 68.28100586 84.37915039 C66.30100599 85.31794978 64.32899473 86.27216477 62.35742188 87.22851562 C51.85053299 92.26757688 51.85053299 92.26757688 47 93 C47.47421387 93.96301025 47.94842773 94.92602051 48.43701172 95.91821289 C50.20586028 99.51416789 51.96707052 103.11382002 53.72607422 106.71459961 C54.48638573 108.26834288 55.24872614 109.82109512 56.01318359 111.37280273 C57.11579162 113.61180144 58.21089557 115.85434006 59.3046875 118.09765625 C59.6443454 118.78336197 59.9840033 119.46906769 60.33395386 120.17555237 C64.30761121 128.36852565 66.79428566 136.63676013 64.2421875 145.6875 C60.8376836 154.69469142 56.20896786 159.20489808 47.64453125 163.59765625 C39.91566008 166.57157345 32.13909341 166.3520686 24.5625 163 C13.79493485 157.4524888 9.39849998 145.34950189 4.5625 135 C3.82475489 133.44605041 3.08583179 131.8926595 2.34570312 130.33984375 C0.55015379 126.56620087 -1.229278 122.78535213 -3 119 C-6.74824522 119 -9.34400134 120.40027314 -12.64453125 121.9921875 C-13.29193771 122.29818878 -13.93934418 122.60419006 -14.60636902 122.91946411 C-16.6777053 123.89921694 -18.74532232 124.88650666 -20.8125 125.875 C-22.86932678 126.85554376 -24.92693026 127.83433406 -26.98649597 128.80911255 C-28.26708277 129.41548761 -29.54608304 130.02522867 -30.82319641 130.6388855 C-40.13271177 135.05552085 -47.73112512 136.62408701 -57.6875 133.4375 C-65.15483837 130.40422292 -69.23647556 125.95746181 -72.9375 118.875 C-75.88409869 111.73855334 -76.59008586 104.40196564 -73.9375 97.05859375 C-72.19984908 93.50571821 -70.19249583 90.28874375 -68 87 C-67.34 87 -66.68 87 -66 87 C-66 86.34 -66 85.68 -66 85 C-58.1920629 80.46093292 -50.07737913 76.58247952 -41.9375 72.6875 C-40.58126011 72.03605726 -39.2251394 71.38436635 -37.86914062 70.73242188 C-34.58079455 69.15208764 -31.29085381 67.57510679 -28 66 C-29.35225861 62.97830911 -30.70689542 59.95769125 -32.0625 56.9375 C-32.46791016 56.03386719 -32.87332031 55.13023438 -33.29101562 54.19921875 C-36.34245161 47.41612086 -39.48056044 40.67956797 -42.6875 33.96875 C-45.50335135 27.59956243 -46.18375431 20.97763888 -44.17578125 14.23046875 C-42.72004725 10.53431142 -41.20848784 7.31273175 -39 4 C-38.34 4 -37.68 4 -37 4 C-37 3.34 -37 2.68 -37 2 C-25.30710568 -6.98326745 -12.24349298 -8.84748763 0 0 Z " fill="#5B7EFD" transform="translate(87,14)"/>
<path d="M0 0 C4.62707479 3.98911044 7.09936794 8.38823103 9.8125 13.75 C10.23901855 14.57604736 10.66553711 15.40209473 11.10498047 16.25317383 C15.27951564 24.40275448 19.18493211 32.67718429 23 41 C27.18941492 40.36045788 30.5826493 38.94340684 34.40234375 37.12890625 C35.00252823 36.84651596 35.60271271 36.56412567 36.22108459 36.2731781 C38.12905865 35.37480564 40.03350352 34.46926837 41.9375 33.5625 C43.83825941 32.66005585 45.73976371 31.75931085 47.64320374 30.86253357 C49.37325961 30.0470743 51.10064848 29.22596383 52.82788086 28.40454102 C61.4889408 24.56962392 69.3395733 23.32462928 78.375 26.75 C86.2890735 30.37000207 90.25778153 35.20090205 94 43 C96.78892233 50.86744027 96.11130554 57.75141315 93.02734375 65.41796875 C87.99716251 75.59769146 78.11584387 79.72196762 68.28100586 84.37915039 C66.30100599 85.31794978 64.32899473 86.27216477 62.35742188 87.22851562 C51.85053299 92.26757688 51.85053299 92.26757688 47 93 C47.66 94.98 48.32 96.96 49 99 C46.2671633 96.64331217 45.33489404 94.6008223 44.25 91.1875 C42.63602822 86.53728246 40.73861419 82.09913042 38.5625 77.6875 C37.72912109 75.99173828 37.72912109 75.99173828 36.87890625 74.26171875 C34.62899566 70.3559488 32.14237696 66.07118848 28 64 C28 63.34 28 62.68 28 62 C17.2069236 56.21240831 6.50853044 54.28204042 -5.25 57.5625 C-12.7311754 60.04436437 -22.36817559 63.36817559 -28 69 C-30.125 68.625 -30.125 68.625 -32 68 C-30.68 67.01 -29.36 66.02 -28 65 C-28.40839111 64.16863525 -28.81678223 63.33727051 -29.23754883 62.48071289 C-30.76844739 59.35740159 -32.29419073 56.23167631 -33.81665039 53.10424805 C-34.47316986 51.75821414 -35.13165434 50.41313663 -35.79223633 49.0690918 C-47.49515084 25.24688353 -47.49515084 25.24688353 -44.16796875 14.25 C-42.72748246 10.53818513 -41.21317593 7.31976389 -39 4 C-38.34 4 -37.68 4 -37 4 C-37 3.34 -37 2.68 -37 2 C-25.30710568 -6.98326745 -12.24349298 -8.84748763 0 0 Z " fill="#69DBFD" transform="translate(87,14)"/>
<path d="M0 0 C0.53367188 0.49113281 1.06734375 0.98226562 1.6171875 1.48828125 C1.6171875 2.14828125 1.6171875 2.80828125 1.6171875 3.48828125 C2.1740625 3.69453125 2.7309375 3.90078125 3.3046875 4.11328125 C9.86965922 8.01677795 12.52362687 15.02678017 15.4296875 21.73828125 C15.83638672 22.64835937 16.24308594 23.5584375 16.66210938 24.49609375 C19.6171875 31.19095982 19.6171875 31.19095982 19.6171875 33.48828125 C2.70898326 41.55260759 -9.9457341 47.37692986 -28.3828125 41.48828125 C-28.3828125 40.82828125 -28.3828125 40.16828125 -28.3828125 39.48828125 C-29.7440625 39.14796875 -29.7440625 39.14796875 -31.1328125 38.80078125 C-34.91282298 37.27423855 -36.04578688 35.76011712 -38.3828125 32.48828125 C-38.98480469 31.97007813 -39.58679688 31.451875 -40.20703125 30.91796875 C-43.38806078 27.36572392 -45.09704165 23.29891905 -47.0703125 18.98828125 C-47.47314453 18.13363281 -47.87597656 17.27898437 -48.29101562 16.3984375 C-49.97486297 12.7825375 -51.52230964 9.39734374 -52.3828125 5.48828125 C-35.61031084 -3.37147182 -18.01278372 -11.42778246 0 0 Z " fill="#2721FD" transform="translate(113.3828125,74.51171875)"/>
<path d="M0 0 C0.99 0 1.98 0 3 0 C3 0.66 3 1.32 3 2 C3.556875 2.20625 4.11375 2.4125 4.6875 2.625 C11.25247172 6.5284967 13.90643937 13.53849892 16.8125 20.25 C17.42254883 21.61511719 17.42254883 21.61511719 18.04492188 23.0078125 C21 29.70267857 21 29.70267857 21 32 C20.10796875 32.40992188 19.2159375 32.81984375 18.296875 33.2421875 C17.12640625 33.78101563 15.9559375 34.31984375 14.75 34.875 C13.58984375 35.40867188 12.4296875 35.94234375 11.234375 36.4921875 C9.39135978 37.35137092 7.55862552 38.23611992 5.765625 39.1953125 C4 40 4 40 1 40 C1 39.34 1 38.68 1 38 C3.43431639 36.82625827 5.87204182 35.66084237 8.3125 34.5 C9.00279297 34.16613281 9.69308594 33.83226562 10.40429688 33.48828125 C15.66015625 31 15.66015625 31 19 31 C18.71125 30.45730469 18.4225 29.91460937 18.125 29.35546875 C17.75375 28.64003906 17.3825 27.92460938 17 27.1875 C16.443125 26.12595703 16.443125 26.12595703 15.875 25.04296875 C15 23 15 23 15 20 C14.01 20 13.02 20 12 20 C11.87882812 19.36191406 11.75765625 18.72382812 11.6328125 18.06640625 C11.46523437 17.24011719 11.29765625 16.41382812 11.125 15.5625 C10.96257812 14.73878906 10.80015625 13.91507813 10.6328125 13.06640625 C10.31957031 12.04353516 10.31957031 12.04353516 10 11 C9.34 10.67 8.68 10.34 8 10 C7.01 10.33 6.02 10.66 5 11 C2.59185923 7.48812804 1.63370592 5.27343092 2 1 C1.34 0.67 0.68 0.34 0 0 Z " fill="#2233EE" transform="translate(112,76)"/>
<path d="M0 0 C5.07096313 5.553912 6.58137811 13.10622458 6.36328125 20.4296875 C5.73155226 24.89933992 4.18381148 29.05479314 2 33 C1.01 33.495 1.01 33.495 0 34 C0.33 31.36 0.66 28.72 1 26 C1.66 26 2.32 26 3 26 C2.88525534 23.45749979 2.7585303 20.91652662 2.625 18.375 C2.57859375 17.30572266 2.57859375 17.30572266 2.53125 16.21484375 C2.28822937 11.79996899 1.47986844 8.1989763 0 4 C0 2.68 0 1.36 0 0 Z " fill="#90A7F1" transform="translate(146,134)"/>
<path d="M0 0 C3.20568783 4.80853175 3.29527161 9.29259766 2.375 14.875 C0.51845595 23.00666294 -3.10788864 29.25210106 -10 34 C-10.66 34 -11.32 34 -12 34 C-10 30 -10 30 -8 26 C-6.68 26 -5.36 26 -4 26 C-3.87625 25.071875 -3.7525 24.14375 -3.625 23.1875 C-3 20 -3 20 -1 17 C-0.34 17 0.32 17 1 17 C0.67 11.39 0.34 5.78 0 0 Z " fill="#A3E5F9" transform="translate(180,57)"/>
<path d="M0 0 C-2.475 1.485 -2.475 1.485 -5 3 C-3.6808718 7.2350958 -2.06793586 11.10776007 -0.0625 15.0625 C0.44152344 16.06410156 0.94554688 17.06570312 1.46484375 18.09765625 C4.15689801 23.1872143 6.7923734 27.01981268 11 31 C10.67 31.66 10.34 32.32 10 33 C5.14919409 29.3860805 2.52516802 26.08473556 -0.125 20.6875 C-0.46265381 20.02322998 -0.80030762 19.35895996 -1.14819336 18.67456055 C-1.80996589 17.3700145 -2.46668068 16.06288719 -3.11767578 14.75292969 C-3.85889431 13.28033726 -4.64158147 11.82872049 -5.43359375 10.3828125 C-8.06711313 5.55317488 -8.06711313 5.55317488 -7.7421875 2.875 C-7 1 -7 1 -4.5625 -0.3125 C-2 -1 -2 -1 0 0 Z " fill="#242BF0" transform="translate(69,78)"/>
<path d="M0 0 C0 0.33 0 0.66 0 1 C-7.75 0.125 -7.75 0.125 -10 -1 C-19.18963633 -1.5906812 -27.84562287 -1.60315203 -35.98828125 3.1640625 C-38.42837593 4.17800475 -39.55652754 3.87266874 -42 3 C-27.32639493 -5.02895372 -15.65427868 -5.49617308 0 0 Z " fill="#243EEA" transform="translate(111,73)"/>
<path d="M0 0 C0.495 1.485 0.495 1.485 1 3 C0.46632812 2.71382813 -0.06734375 2.42765625 -0.6171875 2.1328125 C-11.53581113 -3.05800857 -21.47783229 -4.61479771 -33 -1 C-35.9375 -0.875 -35.9375 -0.875 -38 -1 C-38 -1.66 -38 -2.32 -38 -3 C-26.23327649 -6.84219543 -10.43404827 -7.23995186 0 0 Z " fill="#6DBBFE" transform="translate(114,73)"/>
<path d="M0 0 C0.99 1.485 0.99 1.485 2 3 C0.37433394 2.52309796 -1.25051311 2.04340334 -2.875 1.5625 C-3.77992188 1.29566406 -4.68484375 1.02882813 -5.6171875 0.75390625 C-8 0 -8 0 -10 -1 C-11.47668337 -1.0952699 -12.95775457 -1.12985959 -14.4375 -1.125 C-15.21996094 -1.12757812 -16.00242188 -1.13015625 -16.80859375 -1.1328125 C-19.17895347 -1.08382548 -19.17895347 -1.08382548 -22 0 C-24.33299825 0.03954234 -26.66708189 0.04401732 -29 0 C-21.61630351 -7.38369649 -8.14771975 -4.76745246 0 0 Z " fill="#A5E7F8" transform="translate(170,43)"/>
<path d="M0 0 C1.98 0.99 1.98 0.99 4 2 C4.99 1.34 5.98 0.68 7 0 C6.96519531 0.92232422 6.96519531 0.92232422 6.9296875 1.86328125 C6.91164063 2.67152344 6.89359375 3.47976562 6.875 4.3125 C6.84019531 5.51326172 6.84019531 5.51326172 6.8046875 6.73828125 C6.84182678 9.28388576 6.84182678 9.28388576 9 12 C9 13.32 9 14.64 9 16 C9.66 16.33 10.32 16.66 11 17 C10.01 17 9.02 17 8 17 C6.66161267 14.54429825 5.32913768 12.08570084 4 9.625 C3.6184375 8.92632812 3.236875 8.22765625 2.84375 7.5078125 C0 2.2265625 0 2.2265625 0 0 Z " fill="#889EF1" transform="translate(94,152)"/>
<path d="M0 0 C0.66 0.33 1.32 0.66 2 1 C0.35 1.66 -1.3 2.32 -3 3 C-3 3.66 -3 4.32 -3 5 C-5.8125 7.6875 -5.8125 7.6875 -9 10 C-9.99 9.67 -10.98 9.34 -12 9 C-12.99 9.33 -13.98 9.66 -15 10 C-15.66 9.34 -16.32 8.68 -17 8 C-14.21443118 6.63301613 -11.42068672 5.28365462 -8.625 3.9375 C-7.8309375 3.54755859 -7.036875 3.15761719 -6.21875 2.75585938 C-5.45820313 2.39169922 -4.69765625 2.02753906 -3.9140625 1.65234375 C-2.8614624 1.14175415 -2.8614624 1.14175415 -1.78759766 0.62084961 C-1.19769043 0.41596924 -0.6077832 0.21108887 0 0 Z " fill="#99E4F8" transform="translate(139,43)"/>
<path d="M0 0 C0.33 0 0.66 0 1 0 C1 7.26 1 14.52 1 22 C-2.1945607 18.8054393 -2.15337316 15.50688684 -2.1875 11.125 C-2.15743789 7.06060246 -1.59357043 3.78472978 0 0 Z " fill="#A0E4F8" transform="translate(44,25)"/>
<path d="M0 0 C0.33 0.66 0.66 1.32 1 2 C-2.63 1.01 -6.26 0.02 -10 -1 C-10 -1.66 -10 -2.32 -10 -3 C-12.04159095 -3.0272616 -14.08328963 -3.04651345 -16.125 -3.0625 C-17.83042969 -3.07990234 -17.83042969 -3.07990234 -19.5703125 -3.09765625 C-22.8129156 -3.005327 -25.81932612 -2.61389906 -29 -2 C-21.19637298 -9.80362702 -7.74832499 -5.55181322 0 0 Z " fill="#BAECF9" transform="translate(87,14)"/>
<path d="M0 0 C0.33 0 0.66 0 1 0 C0.98839844 1.30195312 0.97679687 2.60390625 0.96484375 3.9453125 C0.95546027 5.67187356 0.94636066 7.39843618 0.9375 9.125 C0.92912109 9.9809375 0.92074219 10.836875 0.91210938 11.71875 C0.89461694 16.26678411 1.06807642 20.52383164 2 25 C-1.55187676 20.5215467 -2.15501919 17.30264512 -2.1875 11.625 C-2.20167969 10.50351563 -2.21585938 9.38203125 -2.23046875 8.2265625 C-2.00365368 5.05115158 -1.35390668 2.85765282 0 0 Z " fill="#93A7F1" transform="translate(14,109)"/>
<path d="M0 0 C2.67922713 3.28447423 4.45401627 6.73077743 6.25 10.5625 C6.79140625 11.69816406 7.3328125 12.83382812 7.890625 14.00390625 C9 17 9 17 8 20 C2.92876765 13.91452118 0.55983177 7.83764475 0 0 Z " fill="#97E2F4" transform="translate(100,36)"/>
<path d="M0 0 C4.12035848 4.12035848 6.8150518 9.85460092 7.3125 15.625 C7.1578125 16.800625 7.1578125 16.800625 7 18 C4.57714777 14.98568679 2.87243634 11.94482561 1.25 8.4375 C0.80140625 7.48746094 0.3528125 6.53742188 -0.109375 5.55859375 C-1 3 -1 3 0 0 Z " fill="#94E2F6" transform="translate(52,59)"/>
<path d="M0 0 C0 0.66 0 1.32 0 2 C-0.928125 2.3403125 -0.928125 2.3403125 -1.875 2.6875 C-4.24389129 3.84804335 -4.24389129 3.84804335 -4.9375 6.5625 C-5.288125 7.366875 -5.63875 8.17125 -6 9 C-8.625 9.8125 -8.625 9.8125 -11 10 C-11 10.99 -11 11.98 -11 13 C-11.66 13 -12.32 13 -13 13 C-11.125 8.25 -11.125 8.25 -10 6 C-9.34 6 -8.68 6 -8 6 C-8 5.34 -8 4.68 -8 4 C-2.58823529 0 -2.58823529 0 0 0 Z " fill="#9CE4F7" transform="translate(58,12)"/>
<path d="M0 0 C0 2.33333333 0 4.66666667 0 7 C-0.66 7 -1.32 7 -2 7 C-2 7.99 -2 8.98 -2 10 C-1.01 10.33 -0.02 10.66 1 11 C0.34 12.32 -0.32 13.64 -1 15 C-1.67595315 13.58774074 -2.34040059 12.16997095 -3 10.75 C-3.37125 9.96109375 -3.7425 9.1721875 -4.125 8.359375 C-5 6 -5 6 -5 2 C-4.360625 1.855625 -3.72125 1.71125 -3.0625 1.5625 C-1.02454854 1.18992819 -1.02454854 1.18992819 0 0 Z " fill="#6285F5" transform="translate(94,137)"/>
<path d="M0 0 C0 1.65 0 3.3 0 5 C-0.99 4.01 -1.98 3.02 -3 2 C-4.05960938 2.51691406 -5.11921875 3.03382813 -6.2109375 3.56640625 C-7.5987594 4.23218567 -8.98679118 4.89752771 -10.375 5.5625 C-11.42300781 6.07586914 -11.42300781 6.07586914 -12.4921875 6.59960938 C-14.30052216 7.46030712 -16.14851956 8.23652436 -18 9 C-18.66 8.67 -19.32 8.34 -20 8 C-17.60190842 4.40286263 -16.15723046 4.40770506 -12.09375 3.5390625 C-9.73582079 3.01015265 -9.73582079 3.01015265 -6.75 1.375 C-4 0 -4 0 0 0 Z " fill="#ABC2F9" transform="translate(86,130)"/>
<path d="M0 0 C0.66 0.33 1.32 0.66 2 1 C1.01 2.485 1.01 2.485 0 4 C-0.66 4 -1.32 4 -2 4 C-2.268125 4.7425 -2.53625 5.485 -2.8125 6.25 C-3.94229421 8.86636554 -5.20893202 10.80187111 -7 13 C-7.66 12.67 -8.32 12.34 -9 12 C-7.87548273 9.0280615 -6.77706209 6.66559313 -5 4 C-4.34 4 -3.68 4 -3 4 C-3 3.34 -3 2.68 -3 2 C-2.01 1.34 -1.02 0.68 0 0 Z " fill="#8CA3F2" transform="translate(24,97)"/>
<path d="M0 0 C0.66 0.33 1.32 0.66 2 1 C1.236875 1.433125 0.47375 1.86625 -0.3125 2.3125 C-2.95161273 3.78609728 -2.95161273 3.78609728 -4.375 5.59375 C-6.55229343 7.47794624 -7.85473152 7.31066385 -10.6875 7.1875 C-11.49574219 7.16042969 -12.30398437 7.13335937 -13.13671875 7.10546875 C-13.75160156 7.07066406 -14.36648437 7.03585938 -15 7 C-12.54352494 5.36234996 -10.77745872 4.45883379 -8.0625 3.5 C-5.79857974 2.6858195 -3.75953581 1.8734399 -1.625 0.75 C-1.08875 0.5025 -0.5525 0.255 0 0 Z " fill="#5167FE" transform="translate(124,111)"/>
<path d="M0 0 C0 0.66 0 1.32 0 2 C-1.93370231 3.00732399 -3.87210306 4.00563288 -5.8125 5 C-7.43091797 5.8353125 -7.43091797 5.8353125 -9.08203125 6.6875 C-12 8 -12 8 -15 8 C-15 7.34 -15 6.68 -15 6 C-13.06629769 4.99267601 -11.12789694 3.99436712 -9.1875 3 C-8.10855469 2.443125 -7.02960938 1.88625 -5.91796875 1.3125 C-3 0 -3 0 0 0 Z " fill="#252AF0" transform="translate(128,108)"/>
<path d="M0 0 C0 0.99 0 1.98 0 3 C-1.40453643 3.89434157 -2.82421869 4.76493192 -4.25 5.625 C-5.03890625 6.11226562 -5.8278125 6.59953125 -6.640625 7.1015625 C-9 8 -9 8 -11.296875 7.1484375 C-11.85890625 6.76945313 -12.4209375 6.39046875 -13 6 C-11.35 6 -9.7 6 -8 6 C-7.67 4.68 -7.34 3.36 -7 2 C-4.69 1.34 -2.38 0.68 0 0 Z " fill="#89A0F1" transform="translate(144,169)"/>
<path d="M0 0 C-1.95330868 1.03041513 -3.91281528 2.0490893 -5.875 3.0625 C-6.96554688 3.63097656 -8.05609375 4.19945313 -9.1796875 4.78515625 C-10.11039063 5.18605469 -11.04109375 5.58695312 -12 6 C-12.66 5.67 -13.32 5.34 -14 5 C-10.47470999 0.64522999 -5.39743041 -1.75564769 0 0 Z " fill="#A0E5F7" transform="translate(155,98)"/>
<path d="M0 0 C1.98 0.99 1.98 0.99 4 2 C4.99 1.34 5.98 0.68 7 0 C6.67 2.31 6.34 4.62 6 7 C4.125 6.875 4.125 6.875 2 6 C0.75 2.9375 0.75 2.9375 0 0 Z " fill="#7692F5" transform="translate(94,152)"/>
<path d="M0 0 C2.48794878 3.31726504 3.52821942 4.99613909 4.6875 8.75 C5.06455078 9.94882813 5.06455078 9.94882813 5.44921875 11.171875 C5.63097656 11.77515625 5.81273437 12.3784375 6 13 C5.360625 12.505 4.72125 12.01 4.0625 11.5 C2.29025661 9.90197138 2.29025661 9.90197138 1 10 C0.67 6.7 0.34 3.4 0 0 Z " fill="#92A9F5" transform="translate(138,117)"/>
<path d="M0 0 C-2.475 1.485 -2.475 1.485 -5 3 C-4.67 5.31 -4.34 7.62 -4 10 C-6.5722047 8.71389765 -7.00974907 7.66606019 -8 5 C-7.9375 2.875 -7.9375 2.875 -7 1 C-2.66666667 -1.33333333 -2.66666667 -1.33333333 0 0 Z " fill="#2B42EA" transform="translate(69,78)"/>
<path d="M0 0 C2.97 0.495 2.97 0.495 6 1 C-1.5 6 -1.5 6 -5 6 C-5 5.34 -5 4.68 -5 4 C-3.35 3.34 -1.7 2.68 0 2 C0 1.34 0 0.68 0 0 Z " fill="#6781F0" transform="translate(60,137)"/>
<path d="M0 0 C0.99 0 1.98 0 3 0 C3.33 2.31 3.66 4.62 4 7 C3.01 7.495 3.01 7.495 2 8 C0.74335022 5.09399739 0 3.20395416 0 0 Z " fill="#6FCCFD" transform="translate(130,98)"/>
<path d="M0 0 C5.2676092 0.47887356 5.96314468 0.96314468 10 5 C6.37 4.01 2.74 3.02 -1 2 C-0.67 1.34 -0.34 0.68 0 0 Z " fill="#98E1F4" transform="translate(78,11)"/>
<path d="M0 0 C2.64465038 3.1254959 3.84414715 6.08788267 5 10 C3.0625 9.5 3.0625 9.5 1 8 C0.31209578 5.30341548 0.18053536 2.7982981 0 0 Z " fill="#A6E7F4" transform="translate(100,36)"/>
<path d="M0 0 C0.99 0.33 1.98 0.66 3 1 C2.67 1.99 2.34 2.98 2 4 C2.99 4.33 3.98 4.66 5 5 C4.34 6.32 3.68 7.64 3 9 C0 3.375 0 3.375 0 0 Z " fill="#9DB6F3" transform="translate(90,143)"/>
<path d="M0 0 C0.66 0 1.32 0 2 0 C2 0.99 2 1.98 2 3 C2.66 3 3.32 3 4 3 C4 4.98 4 6.96 4 9 C1.49701566 6.06171403 0.53069061 3.82097239 0 0 Z " fill="#9FE6F5" transform="translate(45,47)"/>
<path d="M0 0 C3.39914975 1.13304992 4.05254451 2.12518475 6 5 C5.67 5.66 5.34 6.32 5 7 C2.525 6.01 2.525 6.01 0 5 C0 3.35 0 1.7 0 0 Z " fill="#A1E5FA" transform="translate(172,46)"/>
</svg>
